<svg width="40.000000" height="40.000000" viewBox="0 0 40 40" fill="none" xmlns="http://www.w3.org/2000/svg" xmlns:xlink="http://www.w3.org/1999/xlink">
	<desc>
			Created with Pixso.
	</desc>
	<defs>
		<clipPath id="clip2001_131">
			<rect id="SVG" rx="19.500000" width="39.000000" height="39.000000" transform="translate(0.500000 0.500000)" fill="white" fill-opacity="0"/>
		</clipPath>
	</defs>
	<rect id="Button" rx="11.500000" width="39.000000" height="39.000000" transform="translate(0.500000 0.500000)" fill="#FC004A" fill-opacity="1.000000"/>
	<g clip-path="url(#clip2001_131)">
		<path id="Vector" d="M20 6C20.53 6 21.03 6.21 21.41 6.58C21.78 6.96 22 7.46 22 8L22 18L32 18C32.53 18 33.03 18.21 33.41 18.58C33.78 18.96 34 19.46 34 20C34 20.53 33.78 21.03 33.41 21.41C33.03 21.78 32.53 22 32 22L22 22L22 32C22 32.53 21.78 33.03 21.41 33.41C21.03 33.78 20.53 34 20 34C19.46 34 18.96 33.78 18.58 33.41C18.21 33.03 18 32.53 18 32L18 22L8 22C7.46 22 6.96 21.78 6.58 21.41C6.21 21.03 6 20.53 6 20C6 19.46 6.21 18.96 6.58 18.58C6.96 18.21 7.46 18 8 18L18 18L18 8C18 7.46 18.21 6.96 18.58 6.58C18.96 6.21 19.46 6 20 6Z" fill="#FFFFFF" fill-opacity="1.000000" fill-rule="evenodd"/>
	</g>
</svg>
